<mxfile host="app.diagrams.net" modified="2023-07-06T16:21:27.918Z" agent="Mozilla/5.0 (Windows NT 10.0; Win64; x64) AppleWebKit/537.36 (KHTML, like Gecko) Chrome/114.0.0.0 Safari/537.36 Edg/114.0.1823.67" etag="CoyYY_YxJmgOpISP0Gyw" version="21.5.2" type="github">
  <diagram name="Page-1" id="S8ir3xllTppI7GN0QE2G">
    <mxGraphModel dx="1626" dy="1617" grid="1" gridSize="10" guides="1" tooltips="1" connect="1" arrows="1" fold="1" page="1" pageScale="1" pageWidth="827" pageHeight="1169" math="0" shadow="0">
      <root>
        <mxCell id="0" />
        <mxCell id="1" parent="0" />
        <mxCell id="ZGnevF4JdWnvlo0EcCDF-10" style="edgeStyle=orthogonalEdgeStyle;rounded=0;orthogonalLoop=1;jettySize=auto;html=1;entryX=0;entryY=0.5;entryDx=0;entryDy=0;" parent="1" source="ZGnevF4JdWnvlo0EcCDF-1" target="ZGnevF4JdWnvlo0EcCDF-9" edge="1">
          <mxGeometry relative="1" as="geometry" />
        </mxCell>
        <mxCell id="ZGnevF4JdWnvlo0EcCDF-12" value="1" style="edgeLabel;html=1;align=center;verticalAlign=middle;resizable=0;points=[];" parent="ZGnevF4JdWnvlo0EcCDF-10" vertex="1" connectable="0">
          <mxGeometry x="-0.1272" y="2" relative="1" as="geometry">
            <mxPoint as="offset" />
          </mxGeometry>
        </mxCell>
        <mxCell id="pjKZV7m_eljOnszhxuCW-3" style="rounded=0;orthogonalLoop=1;jettySize=auto;html=1;entryX=0.5;entryY=1;entryDx=0;entryDy=0;" edge="1" parent="1" source="ZGnevF4JdWnvlo0EcCDF-1" target="pjKZV7m_eljOnszhxuCW-2">
          <mxGeometry relative="1" as="geometry" />
        </mxCell>
        <mxCell id="pjKZV7m_eljOnszhxuCW-5" style="edgeStyle=none;rounded=0;orthogonalLoop=1;jettySize=auto;html=1;entryX=0.803;entryY=0.947;entryDx=0;entryDy=0;entryPerimeter=0;" edge="1" parent="1" source="ZGnevF4JdWnvlo0EcCDF-1" target="ZGnevF4JdWnvlo0EcCDF-43">
          <mxGeometry relative="1" as="geometry" />
        </mxCell>
        <mxCell id="pjKZV7m_eljOnszhxuCW-6" style="edgeStyle=none;rounded=0;orthogonalLoop=1;jettySize=auto;html=1;entryX=1;entryY=0.5;entryDx=0;entryDy=0;" edge="1" parent="1" source="ZGnevF4JdWnvlo0EcCDF-1" target="ZGnevF4JdWnvlo0EcCDF-39">
          <mxGeometry relative="1" as="geometry" />
        </mxCell>
        <mxCell id="pjKZV7m_eljOnszhxuCW-7" style="edgeStyle=none;rounded=0;orthogonalLoop=1;jettySize=auto;html=1;entryX=1.003;entryY=0.705;entryDx=0;entryDy=0;entryPerimeter=0;" edge="1" parent="1" source="ZGnevF4JdWnvlo0EcCDF-1" target="pjKZV7m_eljOnszhxuCW-4">
          <mxGeometry relative="1" as="geometry" />
        </mxCell>
        <mxCell id="pjKZV7m_eljOnszhxuCW-8" style="edgeStyle=none;rounded=0;orthogonalLoop=1;jettySize=auto;html=1;entryX=1;entryY=0.5;entryDx=0;entryDy=0;" edge="1" parent="1" source="ZGnevF4JdWnvlo0EcCDF-1" target="ZGnevF4JdWnvlo0EcCDF-8">
          <mxGeometry relative="1" as="geometry" />
        </mxCell>
        <mxCell id="ZGnevF4JdWnvlo0EcCDF-1" value="customer" style="whiteSpace=wrap;html=1;align=center;" parent="1" vertex="1">
          <mxGeometry x="80" y="320" width="100" height="40" as="geometry" />
        </mxCell>
        <mxCell id="ZGnevF4JdWnvlo0EcCDF-20" style="edgeStyle=orthogonalEdgeStyle;rounded=0;orthogonalLoop=1;jettySize=auto;html=1;entryX=0.5;entryY=1;entryDx=0;entryDy=0;" parent="1" source="ZGnevF4JdWnvlo0EcCDF-2" target="ZGnevF4JdWnvlo0EcCDF-19" edge="1">
          <mxGeometry relative="1" as="geometry" />
        </mxCell>
        <mxCell id="ZGnevF4JdWnvlo0EcCDF-22" value="M" style="edgeLabel;html=1;align=center;verticalAlign=middle;resizable=0;points=[];" parent="ZGnevF4JdWnvlo0EcCDF-20" vertex="1" connectable="0">
          <mxGeometry x="-0.28" y="-3" relative="1" as="geometry">
            <mxPoint as="offset" />
          </mxGeometry>
        </mxCell>
        <mxCell id="ZGnevF4JdWnvlo0EcCDF-2" value="Recipes " style="whiteSpace=wrap;html=1;align=center;" parent="1" vertex="1">
          <mxGeometry x="464" y="320" width="100" height="40" as="geometry" />
        </mxCell>
        <mxCell id="ZGnevF4JdWnvlo0EcCDF-4" value="recipe_ingredients" style="whiteSpace=wrap;html=1;align=center;" parent="1" vertex="1">
          <mxGeometry x="452" y="-40" width="124" height="40" as="geometry" />
        </mxCell>
        <mxCell id="ZGnevF4JdWnvlo0EcCDF-8" value="cusId" style="ellipse;whiteSpace=wrap;html=1;align=center;fontStyle=4" parent="1" vertex="1">
          <mxGeometry x="-220" y="330" width="100" height="40" as="geometry" />
        </mxCell>
        <mxCell id="ZGnevF4JdWnvlo0EcCDF-11" style="edgeStyle=orthogonalEdgeStyle;rounded=0;orthogonalLoop=1;jettySize=auto;html=1;" parent="1" source="ZGnevF4JdWnvlo0EcCDF-9" target="ZGnevF4JdWnvlo0EcCDF-2" edge="1">
          <mxGeometry relative="1" as="geometry" />
        </mxCell>
        <mxCell id="ZGnevF4JdWnvlo0EcCDF-13" value="M" style="edgeLabel;html=1;align=center;verticalAlign=middle;resizable=0;points=[];" parent="ZGnevF4JdWnvlo0EcCDF-11" vertex="1" connectable="0">
          <mxGeometry x="-0.1222" y="1" relative="1" as="geometry">
            <mxPoint as="offset" />
          </mxGeometry>
        </mxCell>
        <mxCell id="ZGnevF4JdWnvlo0EcCDF-9" value="submit " style="shape=rhombus;perimeter=rhombusPerimeter;whiteSpace=wrap;html=1;align=center;" parent="1" vertex="1">
          <mxGeometry x="250" y="310" width="120" height="60" as="geometry" />
        </mxCell>
        <mxCell id="ZGnevF4JdWnvlo0EcCDF-21" style="edgeStyle=orthogonalEdgeStyle;rounded=0;orthogonalLoop=1;jettySize=auto;html=1;entryX=0.5;entryY=1;entryDx=0;entryDy=0;" parent="1" source="ZGnevF4JdWnvlo0EcCDF-19" target="ZGnevF4JdWnvlo0EcCDF-4" edge="1">
          <mxGeometry relative="1" as="geometry" />
        </mxCell>
        <mxCell id="ZGnevF4JdWnvlo0EcCDF-24" value="N" style="edgeLabel;html=1;align=center;verticalAlign=middle;resizable=0;points=[];" parent="ZGnevF4JdWnvlo0EcCDF-21" vertex="1" connectable="0">
          <mxGeometry x="0.2327" y="1" relative="1" as="geometry">
            <mxPoint as="offset" />
          </mxGeometry>
        </mxCell>
        <mxCell id="ZGnevF4JdWnvlo0EcCDF-19" value="Have" style="shape=rhombus;perimeter=rhombusPerimeter;whiteSpace=wrap;html=1;align=center;" parent="1" vertex="1">
          <mxGeometry x="454" y="100" width="120" height="60" as="geometry" />
        </mxCell>
        <mxCell id="ZGnevF4JdWnvlo0EcCDF-39" value="UserName" style="ellipse;whiteSpace=wrap;html=1;align=center;" parent="1" vertex="1">
          <mxGeometry x="-130" y="200" width="100" height="40" as="geometry" />
        </mxCell>
        <mxCell id="ZGnevF4JdWnvlo0EcCDF-43" value="Password" style="ellipse;whiteSpace=wrap;html=1;align=center;" parent="1" vertex="1">
          <mxGeometry x="-40" y="160" width="100" height="40" as="geometry" />
        </mxCell>
        <mxCell id="ZGnevF4JdWnvlo0EcCDF-46" style="rounded=0;orthogonalLoop=1;jettySize=auto;html=1;entryX=0.165;entryY=0.99;entryDx=0;entryDy=0;entryPerimeter=0;" parent="1" source="ZGnevF4JdWnvlo0EcCDF-45" target="ZGnevF4JdWnvlo0EcCDF-2" edge="1">
          <mxGeometry relative="1" as="geometry" />
        </mxCell>
        <mxCell id="ZGnevF4JdWnvlo0EcCDF-45" value="recipeID" style="ellipse;whiteSpace=wrap;html=1;align=center;fontStyle=4" parent="1" vertex="1">
          <mxGeometry x="364" y="430" width="100" height="40" as="geometry" />
        </mxCell>
        <mxCell id="ZGnevF4JdWnvlo0EcCDF-48" style="rounded=0;orthogonalLoop=1;jettySize=auto;html=1;entryX=0.363;entryY=1.016;entryDx=0;entryDy=0;entryPerimeter=0;" parent="1" source="ZGnevF4JdWnvlo0EcCDF-47" target="ZGnevF4JdWnvlo0EcCDF-2" edge="1">
          <mxGeometry relative="1" as="geometry" />
        </mxCell>
        <mxCell id="ZGnevF4JdWnvlo0EcCDF-47" value="Title" style="ellipse;whiteSpace=wrap;html=1;align=center;" parent="1" vertex="1">
          <mxGeometry x="414" y="490" width="100" height="40" as="geometry" />
        </mxCell>
        <mxCell id="ZGnevF4JdWnvlo0EcCDF-61" style="rounded=0;orthogonalLoop=1;jettySize=auto;html=1;entryX=0.216;entryY=-0.032;entryDx=0;entryDy=0;entryPerimeter=0;" parent="1" source="ZGnevF4JdWnvlo0EcCDF-60" target="ZGnevF4JdWnvlo0EcCDF-4" edge="1">
          <mxGeometry relative="1" as="geometry" />
        </mxCell>
        <mxCell id="ZGnevF4JdWnvlo0EcCDF-60" value="IngredientID" style="ellipse;whiteSpace=wrap;html=1;align=center;fontStyle=4" parent="1" vertex="1">
          <mxGeometry x="290" y="-120" width="100" height="40" as="geometry" />
        </mxCell>
        <mxCell id="ZGnevF4JdWnvlo0EcCDF-63" style="rounded=0;orthogonalLoop=1;jettySize=auto;html=1;entryX=0.5;entryY=0;entryDx=0;entryDy=0;" parent="1" source="ZGnevF4JdWnvlo0EcCDF-62" target="ZGnevF4JdWnvlo0EcCDF-4" edge="1">
          <mxGeometry relative="1" as="geometry" />
        </mxCell>
        <mxCell id="ZGnevF4JdWnvlo0EcCDF-62" value="name" style="ellipse;whiteSpace=wrap;html=1;align=center;fontStyle=0" parent="1" vertex="1">
          <mxGeometry x="380" y="-170" width="100" height="40" as="geometry" />
        </mxCell>
        <mxCell id="ZGnevF4JdWnvlo0EcCDF-65" style="rounded=0;orthogonalLoop=1;jettySize=auto;html=1;" parent="1" source="ZGnevF4JdWnvlo0EcCDF-64" edge="1">
          <mxGeometry relative="1" as="geometry">
            <mxPoint x="540" y="-40" as="targetPoint" />
          </mxGeometry>
        </mxCell>
        <mxCell id="ZGnevF4JdWnvlo0EcCDF-64" value="recipeId" style="ellipse;whiteSpace=wrap;html=1;align=center;fontStyle=0" parent="1" vertex="1">
          <mxGeometry x="520" y="-180" width="100" height="40" as="geometry" />
        </mxCell>
        <mxCell id="pjKZV7m_eljOnszhxuCW-2" value="Points" style="ellipse;whiteSpace=wrap;html=1;align=center;" vertex="1" parent="1">
          <mxGeometry x="70" y="150" width="100" height="40" as="geometry" />
        </mxCell>
        <mxCell id="pjKZV7m_eljOnszhxuCW-4" value="Email" style="ellipse;whiteSpace=wrap;html=1;align=center;" vertex="1" parent="1">
          <mxGeometry x="-190" y="260" width="100" height="40" as="geometry" />
        </mxCell>
        <mxCell id="pjKZV7m_eljOnszhxuCW-9" style="rounded=0;orthogonalLoop=1;jettySize=auto;html=1;entryX=0.5;entryY=1;entryDx=0;entryDy=0;" edge="1" parent="1" source="pjKZV7m_eljOnszhxuCW-10" target="ZGnevF4JdWnvlo0EcCDF-2">
          <mxGeometry relative="1" as="geometry">
            <mxPoint x="649" y="320" as="targetPoint" />
          </mxGeometry>
        </mxCell>
        <mxCell id="pjKZV7m_eljOnszhxuCW-10" value="Description" style="ellipse;whiteSpace=wrap;html=1;align=center;" vertex="1" parent="1">
          <mxGeometry x="480" y="545" width="100" height="40" as="geometry" />
        </mxCell>
        <mxCell id="pjKZV7m_eljOnszhxuCW-12" style="edgeStyle=none;rounded=0;orthogonalLoop=1;jettySize=auto;html=1;entryX=0.624;entryY=1.036;entryDx=0;entryDy=0;entryPerimeter=0;" edge="1" parent="1" source="pjKZV7m_eljOnszhxuCW-11" target="ZGnevF4JdWnvlo0EcCDF-2">
          <mxGeometry relative="1" as="geometry" />
        </mxCell>
        <mxCell id="pjKZV7m_eljOnszhxuCW-11" value="Prep_time" style="ellipse;whiteSpace=wrap;html=1;align=center;" vertex="1" parent="1">
          <mxGeometry x="550" y="490" width="100" height="40" as="geometry" />
        </mxCell>
        <mxCell id="pjKZV7m_eljOnszhxuCW-14" style="edgeStyle=none;rounded=0;orthogonalLoop=1;jettySize=auto;html=1;" edge="1" parent="1" source="pjKZV7m_eljOnszhxuCW-13">
          <mxGeometry relative="1" as="geometry">
            <mxPoint x="550" y="360" as="targetPoint" />
          </mxGeometry>
        </mxCell>
        <mxCell id="pjKZV7m_eljOnszhxuCW-13" value="Cook_time" style="ellipse;whiteSpace=wrap;html=1;align=center;" vertex="1" parent="1">
          <mxGeometry x="620" y="440" width="100" height="40" as="geometry" />
        </mxCell>
        <mxCell id="pjKZV7m_eljOnszhxuCW-16" style="edgeStyle=none;rounded=0;orthogonalLoop=1;jettySize=auto;html=1;entryX=1;entryY=0.75;entryDx=0;entryDy=0;" edge="1" parent="1" source="pjKZV7m_eljOnszhxuCW-15" target="ZGnevF4JdWnvlo0EcCDF-2">
          <mxGeometry relative="1" as="geometry" />
        </mxCell>
        <mxCell id="pjKZV7m_eljOnszhxuCW-15" value="views" style="ellipse;whiteSpace=wrap;html=1;align=center;" vertex="1" parent="1">
          <mxGeometry x="670" y="390" width="100" height="40" as="geometry" />
        </mxCell>
        <mxCell id="pjKZV7m_eljOnszhxuCW-18" style="edgeStyle=none;rounded=0;orthogonalLoop=1;jettySize=auto;html=1;" edge="1" parent="1" source="pjKZV7m_eljOnszhxuCW-17" target="ZGnevF4JdWnvlo0EcCDF-2">
          <mxGeometry relative="1" as="geometry" />
        </mxCell>
        <mxCell id="pjKZV7m_eljOnszhxuCW-17" value="cusId" style="ellipse;whiteSpace=wrap;html=1;align=center;" vertex="1" parent="1">
          <mxGeometry x="700" y="330" width="100" height="40" as="geometry" />
        </mxCell>
        <mxCell id="pjKZV7m_eljOnszhxuCW-21" style="edgeStyle=none;rounded=0;orthogonalLoop=1;jettySize=auto;html=1;entryX=0.881;entryY=-0.024;entryDx=0;entryDy=0;entryPerimeter=0;" edge="1" parent="1" source="pjKZV7m_eljOnszhxuCW-20" target="ZGnevF4JdWnvlo0EcCDF-4">
          <mxGeometry relative="1" as="geometry" />
        </mxCell>
        <mxCell id="pjKZV7m_eljOnszhxuCW-20" value="quantity" style="ellipse;whiteSpace=wrap;html=1;align=center;fontStyle=0" vertex="1" parent="1">
          <mxGeometry x="630" y="-150" width="100" height="40" as="geometry" />
        </mxCell>
      </root>
    </mxGraphModel>
  </diagram>
</mxfile>
